<svg width="64" height="64" viewBox="0 0 64 64" fill="none" xmlns="http://www.w3.org/2000/svg">
<g id="briefcase">
<path id="Vector" d="M53.3332 18.6667H10.6666C7.72107 18.6667 5.33325 21.0546 5.33325 24.0001V50.6667C5.33325 53.6123 7.72107 56.0001 10.6666 56.0001H53.3332C56.2788 56.0001 58.6666 53.6123 58.6666 50.6667V24.0001C58.6666 21.0546 56.2788 18.6667 53.3332 18.6667Z" stroke="#03045E" stroke-width="4" stroke-linecap="round" stroke-linejoin="round"/>
<path id="Vector_2" d="M42.6666 56V13.3333C42.6666 11.9188 42.1047 10.5623 41.1045 9.5621C40.1043 8.5619 38.7477 8 37.3333 8H26.6666C25.2521 8 23.8955 8.5619 22.8954 9.5621C21.8952 10.5623 21.3333 11.9188 21.3333 13.3333V56" stroke="#03045E" stroke-width="4" stroke-linecap="round" stroke-linejoin="round"/>
</g>
</svg>
