<svg width="48" height="49" viewBox="0 0 48 49" fill="none" xmlns="http://www.w3.org/2000/svg">
<g id="fa:send">
<path d="M0 0.5H43C45.7614 0.5 48 2.73858 48 5.5V43.4995C48 46.261 45.7614 48.4995 43 48.4995H0V0.5Z" fill="white"/>
<path id="Vector" d="M35.6182 12.6473C35.919 12.8616 36.0421 13.1473 35.9874 13.5044L32.4874 34.0755C32.4419 34.3344 32.296 34.5353 32.05 34.6781C31.9224 34.7496 31.7811 34.7853 31.6261 34.7853C31.5259 34.7853 31.4165 34.763 31.298 34.7183L25.1048 32.2407L21.7962 36.1915C21.6322 36.3969 21.4089 36.4995 21.1263 36.4995C21.0078 36.4995 20.9076 36.4817 20.8256 36.446C20.6524 36.3835 20.5134 36.2786 20.4086 36.1312C20.3038 35.9839 20.2514 35.821 20.2514 35.6424V30.9684L32.0636 16.7856L17.4487 29.1738L12.0484 27.0042C11.7112 26.8792 11.5289 26.6337 11.5015 26.2676C11.4833 25.9105 11.6291 25.6471 11.939 25.4774L34.6886 12.6205C34.8253 12.5402 34.9711 12.5 35.1261 12.5C35.3084 12.5 35.4724 12.5491 35.6182 12.6473Z" fill="#03045E"/>
</g>
</svg>
