<svg width="64" height="64" viewBox="0 0 64 64" fill="none" xmlns="http://www.w3.org/2000/svg">
<g id="mdi:arrow-decision-outline">
<path id="Vector" d="M25.7067 35.7334C23.0134 33.3334 19.5734 32.0801 16 32.0001V40.0001L5.33337 29.3334L16 18.6667V26.6667C20.4534 26.6667 24.8 28.1867 28.3467 30.9067C27.2613 32.3945 26.3739 34.0169 25.7067 35.7334ZM48 40.0001V32.0001C46.6667 32.0001 36 32.4267 34.8 43.2001C38.96 44.6667 41.1467 49.2534 39.68 53.4134C38.9701 55.4129 37.4964 57.0494 35.5819 57.9642C33.6674 58.8789 31.4683 58.9973 29.4667 58.2934C25.3334 56.8001 23.12 52.2401 24.5867 48.0801C25.3334 45.7867 27.2 44.0001 29.4667 43.2001C29.8397 38.5907 31.9729 34.3019 35.4238 31.2235C38.8746 28.145 43.3782 26.5132 48 26.6667V18.6667L58.6667 29.3334L48 40.0001ZM34.6667 50.6667C34.6667 49.9595 34.3858 49.2812 33.8857 48.7811C33.3856 48.281 32.7073 48.0001 32 48.0001C31.2928 48.0001 30.6145 48.281 30.1144 48.7811C29.6143 49.2812 29.3334 49.9595 29.3334 50.6667C29.3334 51.374 29.6143 52.0523 30.1144 52.5524C30.6145 53.0525 31.2928 53.3334 32 53.3334C32.7073 53.3334 33.3856 53.0525 33.8857 52.5524C34.3858 52.0523 34.6667 51.374 34.6667 50.6667ZM29.3334 29.6534C30.88 27.8934 32.6667 26.3734 34.6667 25.1467V13.3334H42.6667L32 2.66675L21.3334 13.3334H29.3334V29.6534Z" fill="#03045E"/>
</g>
</svg>
