<svg width="64" height="64" viewBox="0 0 64 64" fill="none" xmlns="http://www.w3.org/2000/svg">
<g id="streamline:money-cash-dollar-coin-accounting-billing-payment-cash-coin-currency-money-finance" clip-path="url(#clip0_188_533)">
<g id="Group">
<path id="Vector" d="M32.0001 20.5713V13.7141M32.0001 20.5713C28.2058 20.5713 25.1429 20.5713 25.1429 25.1427C25.1429 31.9998 38.8572 31.9998 38.8572 38.857C38.8572 43.4284 35.7944 43.4284 32.0001 43.4284M32.0001 20.5713C35.7944 20.5713 38.8572 22.3084 38.8572 25.1427M25.1429 38.857C25.1429 42.2855 28.2058 43.4284 32.0001 43.4284M32.0001 43.4284V50.2855" stroke="#03045E" stroke-width="4" stroke-linecap="round" stroke-linejoin="round"/>
<path id="Vector_2" d="M32 61.7142C48.4108 61.7142 61.7143 48.4107 61.7143 31.9999C61.7143 15.5892 48.4108 2.28564 32 2.28564C15.5893 2.28564 2.28577 15.5892 2.28577 31.9999C2.28577 48.4107 15.5893 61.7142 32 61.7142Z" stroke="#03045E" stroke-width="4" stroke-linecap="round" stroke-linejoin="round"/>
</g>
</g>
<defs>
<clipPath id="clip0_188_533">
<rect width="64" height="64" fill="white"/>
</clipPath>
</defs>
</svg>
