<svg width="64" height="64" viewBox="0 0 64 64" fill="none" xmlns="http://www.w3.org/2000/svg">
<g id="uiw:global" clip-path="url(#clip0_188_531)">
<path id="Vector" d="M32 0C49.6736 0 64 14.3264 64 32C64 49.6736 49.6736 64 32 64C14.3264 64 0 49.6736 0 32C0 14.3264 14.3264 0 32 0ZM32 4.464C24.697 4.464 17.6931 7.36511 12.5291 12.5291C7.36511 17.6931 4.464 24.697 4.464 32C4.464 39.303 7.36511 46.3069 12.5291 51.4709C17.6931 56.6349 24.697 59.536 32 59.536C39.303 59.536 46.3069 56.6349 51.4709 51.4709C56.6349 46.3069 59.536 39.303 59.536 32C59.536 24.697 56.6349 17.6931 51.4709 12.5291C46.3069 7.36511 39.303 4.464 32 4.464ZM38.5536 11.1616C40.634 11.9482 42.5794 13.0537 44.32 14.4384C44.72 14.7456 45.104 15.072 45.4816 15.4208C45.552 15.4816 45.6128 15.5456 45.68 15.6128C46.7296 16.5824 47.6832 17.6736 48.528 18.8448C48.6464 19.008 48.7712 19.1584 48.88 19.3152C49.0848 19.616 49.2768 19.9296 49.4688 20.2432C49.799 20.7721 50.1034 21.3168 50.3808 21.8752C50.5504 22.1952 50.7008 22.544 50.8576 22.8832C50.9632 23.1168 51.0816 23.3568 51.1776 23.6064C51.4112 24.1888 51.6192 24.7744 51.808 25.3728C51.8688 25.5712 51.9168 25.7824 51.9744 25.9808C52.299 27.1194 52.5291 28.2828 52.6624 29.4592C52.6848 29.6704 52.7168 29.8944 52.7328 30.1024C52.7968 30.7904 52.8384 31.4848 52.8384 32.1824C52.8343 33.5455 52.709 34.9055 52.464 36.2464C52.4192 36.48 52.3808 36.7168 52.336 36.9408C52.208 37.5488 52.0608 38.144 51.888 38.7328C50.2592 37.9872 48.3456 36.8896 47.8464 35.6832C46.9376 33.5072 44.5184 32.4192 43.5328 29.616C41.9104 24.976 44.064 25.0976 44.3648 22.2176C44.5056 20.8672 43.5328 20.5856 42.2496 21.136C39.2544 22.3936 38.24 21.9104 37.6352 19.6544C37.0304 17.4048 37.6352 16.7776 37.6352 16.7776C35.5936 17.0016 35.5168 14.5152 36.576 13.888C37.312 13.4656 37.936 12.1696 38.5536 11.1616ZM29.9968 24.9504C31.8848 24.0864 33.6288 23.776 33.3984 22.2912C33.1744 20.8224 32.6432 19.728 29.6928 19.728C26.7424 19.728 28.0288 23.776 25.6096 21.36C23.1904 18.96 26.1376 19.5808 27.3472 19.0336C28.56 18.4832 29.7696 16.2272 27.6512 16.0672C25.536 15.9168 25.9872 17.0016 24.3232 16.3872C22.6592 15.76 21.904 18.56 20.8416 18.1696C20.144 17.9072 18.272 16.4672 17.0304 15.0496C14.4969 17.2532 12.4911 19.9982 11.1616 23.0816C11.5232 27.264 13.7344 29.4592 13.7344 29.4592C13.7344 29.4592 14.8704 32.1824 21.68 35.5296C21.68 35.5296 22.96 35.6064 21.4496 34.0544C19.9392 32.496 18.272 30.5504 20.1632 29.5424C22.0512 28.5216 22.5856 28.608 23.04 30.48C23.4912 32.3488 25.008 31.248 25.1552 29.4592C25.3088 27.6768 28.1056 25.8144 29.9968 24.9504ZM28.5568 34.3584C31.8144 34.3584 31.5104 35.3728 34.0832 37.6384C36.6528 39.8912 35.2928 42.1472 34.0032 43.8624C32.72 45.5712 31.584 47.5104 30.9792 51.024C30.3712 54.5248 28.784 52.0288 28.2592 51.1744C27.728 50.3136 26.896 49.5392 27.1264 45.9584C27.3504 42.3808 24.928 44.4864 24.0992 39.8144C23.2672 35.1488 25.3088 34.3616 28.56 34.3616L28.5568 34.3584ZM44.4832 37.4432C45.3504 36.8896 47.4272 38.3328 46.9792 39.8528C46.5216 41.3728 45.088 40.5152 44.368 39.8528C43.648 39.1936 43.6096 37.9872 44.4832 37.4432Z" fill="#03045E"/>
</g>
<defs>
<clipPath id="clip0_188_531">
<rect width="64" height="64" fill="white"/>
</clipPath>
</defs>
</svg>
